<?xml version="1.0" encoding="UTF-8"?>
<svg id="Layer_2" data-name="Layer 2" xmlns="http://www.w3.org/2000/svg" viewBox="0 0 239.49 205.3">
  <g id="Layer_2-2" data-name="Layer 2">
    <g>
      <path d="m119.09,26c9.67-9.74,18.78-17.09,30.07-21.48,42.9-16.67,89.96,14.88,90.33,60.89.06,7.75-1.34,15.52-2.16,23.26-.3,2.81-1.63,4.19-4.9,4.16-18.66-.16-37.33.06-55.99-.26-2.25-.04-5.31-2.04-6.51-4.03-3.51-5.83-6.3-12.1-9.31-18.23-2.24-4.55-5.61-7.51-10.86-7.46-5.02.06-8.28,2.89-10.46,7.27-5.26,10.58-10.57,21.12-15.88,31.67-.8,1.59-1.7,3.13-3.06,5.63-4.92-10.91-9.46-20.98-13.99-31.05-3.07-6.83-6.15-13.66-9.18-20.51-2.14-4.83-5.61-8-11.05-7.92-5.42.08-8.75,3.27-10.76,8.23-4.19,10.32-8.68,20.53-12.82,30.87-1.62,4.05-3.86,5.91-8.53,5.83-15.49-.27-30.99-.16-46.49.03-2.74.04-3.89-.85-4.56-3.3C-9.62,43.72,19.47,5.02,59.44.66c21.84-2.38,40.26,4.76,55.79,19.95,1.41,1.38,2.35,3.24,3.86,5.38Z" fill="#0D522C"/>
      <path d="m18.52,115.34c6.11,0,12.22.01,18.32,0,7-.02,14,.14,20.99-.12,11.43-.43,19.4-6.12,24.03-16.56,1.46-3.28,2.98-6.53,4.94-10.83,4.13,9.08,7.79,17.05,11.39,25.05,3.55,7.89,7.07,15.8,10.55,23.72,2.17,4.93,5.35,8.41,11.19,8.45,5.58.05,8.8-3.15,11.12-7.82,6.13-12.37,12.34-24.7,18.72-37.45,1.61,2.28,2.8,4.26,4.27,5.99,5.65,6.64,12.96,9.62,21.62,9.59,13.5-.04,26.99,0,40.49,0,1.75,0,3.5,0,6.77,0-2.32,2.57-3.5,4.09-4.89,5.39-28.25,26.36-56.47,52.75-84.83,78.98-8.06,7.46-18.63,7.41-26.62-.02-28.19-26.17-56.26-52.48-84.35-78.75-1.44-1.34-2.72-2.85-4.08-4.28.13-.45.25-.9.38-1.34Z" fill="#0D522C"/>
    </g>
  </g>
</svg>
